<?xml version="1.0" encoding="utf-8"?>
<!-- Generator: Adobe Illustrator 22.0.0, SVG Export Plug-In . SVG Version: 6.00 Build 0)  -->
<svg version="1.1" xmlns="http://www.w3.org/2000/svg" xmlns:xlink="http://www.w3.org/1999/xlink" x="0px" y="0px" width="1400px"
	 height="980px" viewBox="0 0 1400 980" enable-background="new 0 0 1400 980" xml:space="preserve">
<g id="BACKGROUND">
	<rect fill="#F8FEFF" width="1400" height="980"/>
</g>
<g id="OBJECTS">
	<g>
		<path fill="#BFD3DB" d="M1296.3,826.2h-1189c-15.9,0-28.9-12.9-28.9-28.9v0c0-15.9,12.9-28.9,28.9-28.9h1189
			c15.9,0,28.9,12.9,28.9,28.9v0C1325.2,813.3,1312.3,826.2,1296.3,826.2z"/>
		<path fill="#D9E8ED" d="M1296.3,768.5h-1189c-15.9,0-28.9,12.9-28.9,28.9v0c0,5.8,1.7,11.3,4.7,15.8c5.2-7.8,14-13,24.1-13h1189
			c10.1,0,19,5.2,24.1,13c3-4.5,4.7-10,4.7-15.8v0C1325.2,781.4,1312.3,768.5,1296.3,768.5z"/>
		<g>
			<path fill="#A8BEE6" d="M424.9,520.2h-12V237.4c0-0.4,0-0.9,0-1.3c-0.4-7.9-6.3-10.5-11.3-10.4c-4.2,0.1-11.3,2.6-11.3,11.3
				c0,12.9-10.5,23.4-23.3,23.4h-8c-12.9,0-23.3-10.5-23.3-23.3v-16.9c0-6.2-5.1-11.3-11.3-11.3h-4c-6.2,0-11.3,5.1-11.3,11.3V237
				c0,12.9-10.5,23.3-23.3,23.3h-5.7c-12.9,0-23.3-10.5-23.3-23.3c0-8.8-7.1-11.3-11.3-11.4c-5-0.1-11,2.6-11.3,10.4
				c0,0.4,0,0.9,0,1.3v282.8h-12V237.4c0-0.6,0-1.2,0-1.9c0.7-14.7,12.4-22.1,23.6-21.9c11.4,0.3,23,8.4,23,23.3
				c0,6.3,5.1,11.4,11.3,11.4h5.7c6.2,0,11.3-5.1,11.3-11.3v-16.9c0-12.9,10.5-23.3,23.3-23.3h4c12.9,0,23.3,10.5,23.3,23.3V237
				c0,6.2,5.1,11.3,11.3,11.3h8c6.2,0,11.3-5.1,11.3-11.3c0-15,11.6-23.1,23-23.4c11.2-0.2,22.9,7.2,23.6,21.9c0,0.6,0,1.2,0,1.9
				V520.2z"/>
			<path fill="#F57142" d="M417.9,515.2V237.4c0-0.5,0-1,0-1.5c-0.5-10.5-8.4-15.2-16.1-15.2l-0.3,0c-7.8,0.2-16.2,5.4-16.2,16.3
				c0,10.1-8.2,18.4-18.3,18.4h-8c-10.1,0-18.3-8.2-18.3-18.3v-16.9c0-9-7.3-16.3-16.3-16.3h-4c-9,0-16.3,7.3-16.3,16.3V237
				c0,10.1-8.2,18.3-18.3,18.3h-5.7c-10.1,0-18.3-8.2-18.3-18.3c0-11-8.4-16.2-16.2-16.4l-0.4,0c-7.7,0-15.6,4.7-16.1,15.2
				c0,0.5,0,1,0,1.5v277.8h-2V237.4c0-0.5,0-1.1,0-1.6c0.5-11.8,9.7-17.1,18.1-17.1l0.4,0c8.7,0.2,18.1,6,18.1,18.3
				c0,9,7.3,16.4,16.3,16.4h5.7c9,0,16.3-7.3,16.3-16.3v-16.9c0-10.1,8.2-18.3,18.3-18.3h4c10.1,0,18.3,8.2,18.3,18.3V237
				c0,9,7.3,16.3,16.3,16.3h8c9,0,16.3-7.3,16.3-16.3c0-12.3,9.4-18.2,18.1-18.4l0.4,0c8.3,0,17.5,5.4,18,17.1c0,0.5,0,1.1,0,1.6
				v277.8H417.9z"/>
			<g>
				<path fill="#B8CBEE" d="M140.3,803.4h179.5c7.9,0,13.2-8.2,9.9-15.4l-68.9-181.7v-89.7h1.2c6.1,0,11.3-4.8,11.4-10.8
					c0.1-6.2-4.9-11.2-11-11.2h-64.3c-6.1,0-11.3,4.8-11.4,10.8c-0.1,6.2,4.9,11.2,11,11.2h1.6v89.7L130.4,788
					C127.1,795.2,132.4,803.4,140.3,803.4z"/>
				<g>
					<polygon fill="#923E95" points="281.8,675.4 281.8,675.4 325.2,789.9 					"/>
					<path fill="#923E95" d="M286.6,795.7c1.1-1.7,1.3-3.8,0.4-5.7l-0.1-0.1l-43.4-114.5h-65.2l-43.4,114.5l-0.1,0.1
						c-0.9,1.9-0.7,4,0.4,5.7c1.1,1.7,3,2.7,5,2.7h141.3C283.6,798.5,285.5,797.5,286.6,795.7z"/>
					<polygon fill="#A8BEE6" points="255.9,607.2 255.9,516.6 217.7,516.6 217.7,607.2 243.5,675.4 281.8,675.4 					"/>
					<path fill="#843887" d="M325.3,790l-0.1-0.1l-43.4-114.5h-38.2L287,789.9l0.1,0.1c0.9,1.9,0.7,4-0.4,5.7c-1.1,1.7-3,2.7-5,2.7
						h38.2c2.1,0,3.9-1,5-2.7C326,794,326.1,791.9,325.3,790z"/>
				</g>
				<circle fill="#FFFFFF" cx="187.7" cy="704.9" r="9.2"/>
				<circle fill="#FFFFFF" cx="237.8" cy="707" r="13.3"/>
				<circle fill="#FFFFFF" cx="212.2" cy="767.8" r="4.6"/>
				<circle fill="#FFFFFF" cx="273.6" cy="726.4" r="4.6"/>
				<circle fill="#FFFFFF" cx="164.7" cy="780.1" r="4.6"/>
				<circle fill="#FFFFFF" cx="295.2" cy="773.7" r="7.9"/>
				<circle fill="#FFFFFF" cx="251.2" cy="758" r="8.3"/>
				<path opacity="0.16" fill="#FFFFFF" d="M168.5,761.9L168.5,761.9c-3.6-1.3-5.4-5.3-4.1-8.9l22.8-60.9c1.3-3.6,5.3-5.4,8.9-4.1h0
					c3.6,1.3,5.4,5.3,4.1,8.9l-22.8,60.9C176.1,761.5,172.1,763.3,168.5,761.9z"/>
			</g>
			<g>
				<path fill="#B8CBEE" d="M444,520.5v-34.7h1c5,0,9.3-3.9,9.4-8.9c0.1-5.1-4-9.2-9.1-9.2l-48.1,0c-4.8,0-9,3.6-9.3,8.4
					c-0.3,4.9,3.1,9,7.7,9.6v36.1c0,10.6-5.9,20.1-15.2,25.2c-27.2,14.6-45.6,43.5-45.2,76.6c0.5,47.2,39.6,85.5,86.8,85
					c47-0.5,85-38.8,85-85.9c0-33.6-19.3-62.7-47.4-76.8C450,541,444,531.2,444,520.5z"/>
				<path fill="#A8BEE6" d="M421.1,704.8c0.3,0,0.5,0,0.8,0c21.8-0.2,42.2-8.9,57.5-24.3c15.3-15.5,23.8-36,23.8-57.8
					c0-31.3-17.4-59.4-45.4-73.5c-10.9-5.5-17.7-16.5-17.7-28.7V482h4.8c3,0,5.5-2.3,5.6-5.2c0-1.4-0.5-2.8-1.5-3.8
					c-1-1-2.3-1.6-3.8-1.6h-26.3v233.3C419.7,704.8,420.4,704.8,421.1,704.8C421.1,704.8,421.1,704.8,421.1,704.8z"/>
				<path fill="#F57142" d="M350.4,580.8c-7.5,12.7-11.6,27.4-11.4,42.8c0.5,44.8,37.3,81.3,82.2,81.3c0,0,0,0,0,0
					c0.3,0,0.5,0,0.8,0c21.8-0.2,42.2-8.9,57.5-24.3c15.3-15.5,23.8-36,23.8-57.8c0-15.1-4.1-29.5-11.4-41.9H350.4z"/>
				<path fill="#E8673A" d="M421.1,704.8c0.3,0,0.5,0,0.8,0c21.8-0.2,42.2-8.9,57.5-24.3c15.3-15.5,23.8-36,23.8-57.8
					c0-15.1-4.1-29.5-11.4-41.9h-72.9v124C419.7,704.8,420.4,704.8,421.1,704.8C421.1,704.8,421.1,704.8,421.1,704.8z"/>
				<circle fill="#FFFFFF" cx="467.2" cy="632" r="7.1"/>
				<circle fill="#FFFFFF" cx="371.7" cy="630.8" r="7.1"/>
				<circle fill="#FFFFFF" cx="413" cy="681.5" r="7.1"/>
				<circle fill="#FFFFFF" cx="407.1" cy="610.8" r="7.1"/>
				<circle fill="#FFFFFF" cx="447.2" cy="667.4" r="3.5"/>
				<circle fill="#FFFFFF" cx="396.5" cy="653.2" r="3.5"/>
				<circle fill="#FFFFFF" cx="423.6" cy="635.5" r="3.5"/>
				<path opacity="0.2" fill="#FFFFFF" d="M418.4,694.2c-37.3,0-67.6-30.3-67.6-67.6c0-2.9,2.4-5.3,5.3-5.3c2.9,0,5.3,2.4,5.3,5.3
					c0,31.4,25.6,57,57,57c2.9,0,5.3,2.4,5.3,5.3C423.7,691.8,421.3,694.2,418.4,694.2z"/>
			</g>
			<path fill="#D69D67" d="M546,672.2H306.8c-2.3,0-4.1-1.8-4.1-4.1l0,0c0-2.3,1.8-4.1,4.1-4.1H546c2.3,0,4.1,1.8,4.1,4.1l0,0
				C550.2,670.4,548.3,672.2,546,672.2z"/>
			<g>
				<path fill="#B8CBEE" d="M864.6,347.4h-107c-8.1,0-14.7-6.6-14.7-14.7V206.5c0-8.6,7-15.6,15.6-15.6h136c3.9,0,6.2,4.3,4.2,7.6
					l-18.5,29.4c-0.5,0.8-0.8,1.7-0.8,2.6v102.3C879.3,340.8,872.7,347.4,864.6,347.4z"/>
				<path fill="#F57142" d="M747.8,251.9v80.8c0,5.4,4.4,9.7,9.7,9.7h107c5.4,0,9.7-4.4,9.7-9.7v-80.8H747.8z"/>
				<path fill="#E6693E" d="M823.9,342.4h40.7c5.4,0,9.7-4.4,9.7-9.7v-80.8h-50.4V342.4z"/>
				<path fill="#A8BEE6" d="M875.9,225.1l18.5-29.3h-70.4v56.1h50.4v-21.5C874.3,228.6,874.9,226.7,875.9,225.1z"/>
				<g>
					<path fill="#FFFFFF" d="M872.6,234.1h-16c-1.1,0-2-0.9-2-2s0.9-2,2-2h16c1.1,0,2,0.9,2,2S873.7,234.1,872.6,234.1z"/>
					<path fill="#FFFFFF" d="M872.6,247.3h-16c-1.1,0-2-0.9-2-2s0.9-2,2-2h16c1.1,0,2,0.9,2,2S873.7,247.3,872.6,247.3z"/>
					<path fill="#FFFFFF" d="M872.6,260.4h-16c-1.1,0-2-0.9-2-2s0.9-2,2-2h16c1.1,0,2,0.9,2,2S873.7,260.4,872.6,260.4z"/>
					<path fill="#FFFFFF" d="M872.6,273.6h-16c-1.1,0-2-0.9-2-2s0.9-2,2-2h16c1.1,0,2,0.9,2,2S873.7,273.6,872.6,273.6z"/>
					<path fill="#FFFFFF" d="M872.6,286.7h-16c-1.1,0-2-0.9-2-2s0.9-2,2-2h16c1.1,0,2,0.9,2,2S873.7,286.7,872.6,286.7z"/>
					<path fill="#FFFFFF" d="M872.6,299.9h-16c-1.1,0-2-0.9-2-2s0.9-2,2-2h16c1.1,0,2,0.9,2,2S873.7,299.9,872.6,299.9z"/>
					<path fill="#FFFFFF" d="M872.6,313h-16c-1.1,0-2-0.9-2-2s0.9-2,2-2h16c1.1,0,2,0.9,2,2S873.7,313,872.6,313z"/>
					<path fill="#FFFFFF" d="M872.6,326.2h-16c-1.1,0-2-0.9-2-2s0.9-2,2-2h16c1.1,0,2,0.9,2,2S873.7,326.2,872.6,326.2z"/>
				</g>
				<path opacity="0.2" fill="#FFFFFF" d="M769.2,309.1L769.2,309.1c-4.1,0-7.4-3.3-7.4-7.4v-76.9c0-4.1,3.3-7.4,7.4-7.4h0
					c4.1,0,7.4,3.3,7.4,7.4v76.9C776.7,305.7,773.4,309.1,769.2,309.1z"/>
			</g>
			<g>
				<rect x="775.8" y="407.6" fill="#E08D41" width="65.5" height="33.8"/>
				<rect x="808.6" y="407.6" fill="#CF823C" width="32.8" height="33.8"/>
				<rect x="756" y="436.7" fill="#EAEAEA" width="105.2" height="22.6"/>
				<rect x="756" y="436.7" fill="#D6D6D6" width="105.2" height="11.3"/>
				<path fill="#FF6E4A" d="M821.2,388.2c0,12.7-5.6,16.8-12.6,16.8c-6.9,0-12.6-4.1-12.6-16.8c0-12.7,12.6-35.5,12.6-35.5
					S821.2,375.5,821.2,388.2z"/>
				<path fill="#FFAE4A" d="M816.8,394.1c0,8.3-3.6,10.9-8.1,10.9c-4.5,0-8.1-2.6-8.1-10.9s8.1-23,8.1-23S816.8,385.9,816.8,394.1z"
					/>
			</g>
			<g>
				<rect x="393.1" y="759.1" fill="#E08D41" width="56" height="28.9"/>
				<rect x="421.1" y="759.1" fill="#CF823C" width="28" height="28.9"/>
				<rect x="376.1" y="784" fill="#EAEAEA" width="90" height="19.3"/>
				<rect x="376.1" y="784" fill="#D6D6D6" width="90" height="9.7"/>
				<path fill="#FF6E4A" d="M431.8,742.5c0,10.9-4.8,14.4-10.8,14.4c-5.9,0-10.8-3.5-10.8-14.4s10.8-30.4,10.8-30.4
					S431.8,731.6,431.8,742.5z"/>
				<path fill="#FFAE4A" d="M428.1,747.6c0,7.1-3.1,9.3-7,9.3s-7-2.3-7-9.3c0-7.1,7-19.7,7-19.7S428.1,740.5,428.1,747.6z"/>
			</g>
			<g>
				<g>
					<path fill="#EDAE72" d="M948.4,787L948.4,787c-4.5,0-8.2-3.7-8.2-8.2V268.5c0-4.5,3.7-8.2,8.2-8.2l0,0c4.5,0,8.2,3.7,8.2,8.2
						v510.2C956.7,783.3,953,787,948.4,787z"/>
				</g>
				<path fill="#D69D67" d="M971.3,331.5H660.4c-4.5,0-8.2-3.7-8.2-8.2l0,0c0-4.5,3.7-8.2,8.2-8.2h310.9c4.5,0,8.2,3.7,8.2,8.2l0,0
					C979.5,327.8,975.8,331.5,971.3,331.5z"/>
				<path fill="#D69D67" d="M971.3,473.5H660.4c-4.5,0-8.2-3.7-8.2-8.2l0,0c0-4.5,3.7-8.2,8.2-8.2h310.9c4.5,0,8.2,3.7,8.2,8.2l0,0
					C979.5,469.8,975.8,473.5,971.3,473.5z"/>
				<path fill="#B88758" d="M971.3,792.6H660.4c-4.5,0-8.2-3.7-8.2-8.2l0,0c0-4.5,3.7-8.2,8.2-8.2h310.9c4.5,0,8.2,3.7,8.2,8.2l0,0
					C979.5,788.9,975.8,792.6,971.3,792.6z"/>
			</g>
			<g>
				<g>
					<g>
						<path fill="#B8CBEE" d="M629.8,665.2V522h1.5c4,0,7.4-3,7.7-6.9c0.3-4.3-3.2-7.9-7.4-7.9h-40c-4,0-7.4,3-7.7,6.9
							c-0.3,4.3,3.2,7.9,7.4,7.9h1.8v143.2c0,7.6-3.2,14.8-8.6,20.1c-7.3,7.1-11.9,17.1-11.8,28.2c0.2,21.5,17.3,38.5,38.8,38.5
							c21.4,0,38.8-17.4,38.8-38.8c0-11.1-4.6-21.1-12.1-28.1C632.7,679.9,629.8,672.7,629.8,665.2z"/>
						<path fill="#A8BEE6" d="M646.4,713.2c0-9.7-3.9-18.7-10.9-25.4c-6-5.7-9.5-13.9-9.5-22.5v-147h5.3c2,0,3.8-1.5,3.9-3.4
							c0.1-1-0.3-2-1-2.8c-0.7-0.7-1.7-1.2-2.7-1.2h-20.7v237.3c0.2,0,0.4,0,0.6,0C630.7,748.2,646.4,732.5,646.4,713.2z"/>
						<path fill="#42D3F4" d="M635.5,687.8c-6-5.7-9.5-13.9-9.5-22.5v-84.5h-29.2v84.5c0,8.5-3.6,16.8-9.7,22.8
							c-6.9,6.7-10.7,15.8-10.7,25.4c0.1,19.5,15.5,34.8,35,34.8c19.3,0,35-15.7,35-35C646.4,703.5,642.6,694.4,635.5,687.8z"/>
						<path fill="#38C8E8" d="M646.4,713.2c0-9.7-3.9-18.7-10.9-25.4c-6-5.7-9.5-13.9-9.5-22.5v-84.5h-15.2v167.5c0.2,0,0.4,0,0.6,0
							C630.7,748.2,646.4,732.5,646.4,713.2z"/>
						<circle fill="#FFFFFF" cx="625.3" cy="693.2" r="6.3"/>
						<circle fill="#FFFFFF" cx="622.9" cy="716.5" r="3.2"/>
						<circle fill="#FFFFFF" cx="601.2" cy="688.4" r="3.2"/>
						<circle fill="#FFFFFF" cx="623.6" cy="733.3" r="3.2"/>
						<circle fill="#FFFFFF" cx="609.2" cy="730.8" r="4.8"/>
						<circle fill="#FFFFFF" cx="595.6" cy="711.7" r="2.4"/>
						<path opacity="0.16" fill="#FFFFFF" d="M604.5,644.4L604.5,644.4c-2.2,0-4-1.8-4-4v-99.2c0-2.2,1.8-4,4-4l0,0c2.2,0,4,1.8,4,4
							v99.2C608.5,642.6,606.7,644.4,604.5,644.4z"/>
					</g>
					<g>
						<path fill="#B8CBEE" d="M727.9,665.2V522h1.5c4,0,7.4-3,7.7-6.9c0.3-4.3-3.2-7.9-7.4-7.9h-40c-4,0-7.4,3-7.7,6.9
							c-0.3,4.3,3.2,7.9,7.4,7.9h1.8v143.2c0,7.6-3.2,14.8-8.6,20.1c-7.3,7.1-11.9,17.1-11.8,28.2c0.2,21.5,17.3,38.5,38.8,38.5
							c21.4,0,38.8-17.4,38.8-38.8c0-11.1-4.6-21.1-12.1-28.1C730.8,679.9,727.9,672.7,727.9,665.2z"/>
						<path fill="#A8BEE6" d="M744.5,713.2c0-9.7-3.9-18.7-10.9-25.4c-6-5.7-9.5-13.9-9.5-22.5v-147h5.3c2,0,3.8-1.5,3.9-3.4
							c0.1-1-0.3-2-1-2.8c-0.7-0.7-1.7-1.2-2.7-1.2h-20.7v237.3c0.2,0,0.4,0,0.6,0C728.8,748.2,744.5,732.5,744.5,713.2z"/>
						<path fill="#923E95" d="M733.6,687.8c-6-5.7-9.5-13.9-9.5-22.5v-84.5h-29.2v84.5c0,8.5-3.6,16.8-9.7,22.8
							c-6.9,6.7-10.7,15.8-10.7,25.4c0.1,19.5,15.5,34.8,35,34.8c19.3,0,35-15.7,35-35C744.5,703.5,740.6,694.4,733.6,687.8z"/>
						<path fill="#843887" d="M744.5,713.2c0-9.7-3.9-18.7-10.9-25.4c-6-5.7-9.5-13.9-9.5-22.5v-84.5h-15.2v167.5c0.2,0,0.4,0,0.6,0
							C728.8,748.2,744.5,732.5,744.5,713.2z"/>
						<circle fill="#FFFFFF" cx="723.3" cy="693.2" r="6.3"/>
						<circle fill="#FFFFFF" cx="720.9" cy="716.5" r="3.2"/>
						<circle fill="#FFFFFF" cx="699.2" cy="688.4" r="3.2"/>
						<circle fill="#FFFFFF" cx="721.7" cy="733.3" r="3.2"/>
						<circle fill="#FFFFFF" cx="707.3" cy="730.8" r="4.8"/>
						<circle fill="#FFFFFF" cx="693.6" cy="711.7" r="2.4"/>
						<path opacity="0.16" fill="#FFFFFF" d="M702.6,644.4L702.6,644.4c-2.2,0-4-1.8-4-4v-99.2c0-2.2,1.8-4,4-4l0,0c2.2,0,4,1.8,4,4
							v99.2C706.6,642.6,704.8,644.4,702.6,644.4z"/>
					</g>
					<g>
						<path fill="#B8CBEE" d="M825.9,665.2V522h1.5c4,0,7.4-3,7.7-6.9c0.3-4.3-3.2-7.9-7.4-7.9h-40c-4,0-7.4,3-7.7,6.9
							c-0.3,4.3,3.2,7.9,7.4,7.9h1.8v143.2c0,7.6-3.2,14.8-8.6,20.1c-7.3,7.1-11.9,17.1-11.8,28.2c0.2,21.5,17.3,38.5,38.8,38.5
							c21.4,0,38.8-17.4,38.8-38.8c0-11.1-4.6-21.1-12.1-28.1C828.8,679.9,825.9,672.7,825.9,665.2z"/>
						<path fill="#A8BEE6" d="M842.6,713.2c0-9.7-3.9-18.7-10.9-25.4c-6-5.7-9.5-13.9-9.5-22.5v-147h5.3c2,0,3.8-1.5,3.9-3.4
							c0.1-1-0.3-2-1-2.8c-0.7-0.7-1.7-1.2-2.7-1.2H807v237.3c0.2,0,0.4,0,0.6,0C826.8,748.2,842.6,732.5,842.6,713.2z"/>
						<path fill="#F4DC42" d="M831.6,687.8c-6-5.7-9.5-13.9-9.5-22.5v-84.5h-29.2v84.5c0,8.5-3.6,16.8-9.7,22.8
							c-6.9,6.7-10.7,15.8-10.7,25.4c0.1,19.5,15.5,34.8,35,34.8c19.3,0,35-15.7,35-35C842.6,703.5,838.7,694.4,831.6,687.8z"/>
						<path fill="#E0CA3D" d="M842.6,713.2c0-9.7-3.9-18.7-10.9-25.4c-6-5.7-9.5-13.9-9.5-22.5v-84.5H807v167.5c0.2,0,0.4,0,0.6,0
							C826.8,748.2,842.6,732.5,842.6,713.2z"/>
						<circle fill="#FFFFFF" cx="821.4" cy="693.2" r="6.3"/>
						<circle fill="#FFFFFF" cx="819" cy="716.5" r="3.2"/>
						<circle fill="#FFFFFF" cx="797.3" cy="688.4" r="3.2"/>
						<circle fill="#FFFFFF" cx="819.7" cy="733.3" r="3.2"/>
						<circle fill="#FFFFFF" cx="805.4" cy="730.8" r="4.8"/>
						<circle fill="#FFFFFF" cx="791.7" cy="711.7" r="2.4"/>
						<path opacity="0.16" fill="#FFFFFF" d="M800.6,644.4L800.6,644.4c-2.2,0-4-1.8-4-4v-99.2c0-2.2,1.8-4,4-4l0,0c2.2,0,4,1.8,4,4
							v99.2C804.6,642.6,802.9,644.4,800.6,644.4z"/>
					</g>
				</g>
				<g>
					<g>
						<rect x="527.4" y="512.5" fill="#D69D67" width="25.3" height="260.4"/>
						<rect x="540" y="512.5" fill="#C48E58" width="12.6" height="260.4"/>
						<path fill="#B88758" d="M565.3,796.6h-50.5v-6.3c0-13.9,11.3-25.3,25.3-25.3h0c13.9,0,25.3,11.3,25.3,25.3V796.6z"/>
						<path fill="#D69D67" d="M564.3,798.9h-48.8c-3.2,0-5.7-2.6-5.7-5.7l0,0c0-3.2,2.6-5.7,5.7-5.7h48.8c3.2,0,5.7,2.6,5.7,5.7l0,0
							C570,796.3,567.4,798.9,564.3,798.9z"/>
					</g>
					<g>
						<rect x="867.8" y="512.5" fill="#D69D67" width="25.3" height="260.4"/>
						<rect x="880.4" y="512.5" fill="#C48E58" width="12.6" height="260.4"/>
						<path fill="#B88758" d="M905.7,796.6h-50.5v-6.3c0-13.9,11.3-25.3,25.3-25.3l0,0c13.9,0,25.3,11.3,25.3,25.3V796.6z"/>
						<path fill="#D69D67" d="M904.7,798.9h-48.8c-3.2,0-5.7-2.6-5.7-5.7l0,0c0-3.2,2.6-5.7,5.7-5.7h48.8c3.2,0,5.7,2.6,5.7,5.7l0,0
							C910.4,796.3,907.8,798.9,904.7,798.9z"/>
					</g>
				</g>
				<path fill="#D69D67" d="M918.9,581H501.3c-2.3,0-4.1-1.8-4.1-4.1l0,0c0-2.3,1.8-4.1,4.1-4.1h417.6c2.3,0,4.1,1.8,4.1,4.1l0,0
					C923,579.2,921.2,581,918.9,581z"/>
				<path fill="#D69D67" d="M918.9,604.3H501.3c-2.3,0-4.1-1.8-4.1-4.1l0,0c0-2.3,1.8-4.1,4.1-4.1h417.6c2.3,0,4.1,1.8,4.1,4.1l0,0
					C923,602.5,921.2,604.3,918.9,604.3z"/>
			</g>
			<g>
				<g>
					<path fill="#EDAE72" d="M1244.1,779.6L1244.1,779.6c-3.4,0-6.1-2.7-6.1-6.1V396.3c0-3.4,2.7-6.1,6.1-6.1l0,0
						c3.4,0,6.1,2.7,6.1,6.1v377.2C1250.2,776.9,1247.5,779.6,1244.1,779.6z"/>
					<path fill="#EDAE72" d="M1048.1,779.6L1048.1,779.6c-3.4,0-6.1-2.7-6.1-6.1V396.3c0-3.4,2.7-6.1,6.1-6.1l0,0
						c3.4,0,6.1,2.7,6.1,6.1v377.2C1054.2,776.9,1051.5,779.6,1048.1,779.6z"/>
				</g>
				<g>
					<path fill="#B8CBEE" d="M1170.1,477v-65.5h1c5,0,9.3-3.9,9.4-8.9c0.1-5.1-4-9.2-9.1-9.2h-48.1c-4.8,0-9,3.6-9.3,8.4
						c-0.3,4.9,3.1,9,7.7,9.6v67c0,10.6-5.9,20.1-15.2,25.2c-27.2,14.6-45.6,43.5-45.2,76.6c0.5,47.2,39.6,85.5,86.8,85
						c47-0.5,85-38.8,85-85.9c0-33.6-19.3-62.7-47.4-76.8C1176.1,497.6,1170.1,487.7,1170.1,477z"/>
					<path fill="#A8BEE6" d="M1147.3,661.3c0.3,0,0.5,0,0.8,0c21.8-0.2,42.2-8.9,57.5-24.3c15.3-15.5,23.8-36,23.8-57.8
						c0-31.3-17.4-59.4-45.4-73.5c-10.9-5.5-17.7-16.5-17.7-28.7v-69.3h4.8c3,0,5.5-2.3,5.6-5.2c0-1.4-0.5-2.8-1.5-3.8
						c-1-1-2.3-1.6-3.8-1.6h-26.3v264.2C1145.8,661.3,1146.5,661.3,1147.3,661.3C1147.3,661.3,1147.3,661.3,1147.3,661.3z"/>
					<path fill="#42D3F4" d="M1076.5,537.3c-7.5,12.7-11.6,27.4-11.4,42.8c0.5,44.8,37.3,81.3,82.2,81.3c0,0,0,0,0,0
						c0.3,0,0.5,0,0.8,0c21.8-0.2,42.2-8.9,57.5-24.3c15.3-15.5,23.8-36,23.8-57.8c0-15.1-4.1-29.5-11.4-41.9H1076.5z"/>
					<path fill="#38C8E8" d="M1147.3,661.3c0.3,0,0.5,0,0.8,0c21.8-0.2,42.2-8.9,57.5-24.3c15.3-15.5,23.8-36,23.8-57.8
						c0-15.1-4.1-29.5-11.4-41.9h-72.9v124C1145.8,661.3,1146.5,661.3,1147.3,661.3C1147.3,661.3,1147.3,661.3,1147.3,661.3z"/>
					<circle fill="#FFFFFF" cx="1193.4" cy="588.5" r="7.1"/>
					<circle fill="#42D3F4" cx="1142.6" cy="362.6" r="7.1"/>
					<circle fill="#42D3F4" cx="1161.2" cy="375.9" r="4.7"/>
					<circle fill="#42D3F4" cx="1136.6" cy="331.3" r="4.7"/>
					<circle fill="#42D3F4" cx="1157.6" cy="329.6" r="7.1"/>
					<circle fill="#42D3F4" cx="1141.1" cy="299.6" r="7.1"/>
					<circle fill="#FFFFFF" cx="1097.8" cy="587.3" r="7.1"/>
					<circle fill="#FFFFFF" cx="1139.1" cy="638.1" r="7.1"/>
					<circle fill="#FFFFFF" cx="1133.2" cy="567.3" r="7.1"/>
					<circle fill="#FFFFFF" cx="1173.3" cy="623.9" r="3.5"/>
					<circle fill="#FFFFFF" cx="1122.6" cy="609.8" r="3.5"/>
					<circle fill="#FFFFFF" cx="1149.7" cy="592.1" r="3.5"/>
					<path opacity="0.2" fill="#FFFFFF" d="M1144.6,650.7c-37.3,0-67.6-30.3-67.6-67.6c0-2.9,2.4-5.3,5.3-5.3c2.9,0,5.3,2.4,5.3,5.3
						c0,31.4,25.6,57,57,57c2.9,0,5.3,2.4,5.3,5.3C1149.8,648.4,1147.5,650.7,1144.6,650.7z"/>
				</g>
				<path fill="#D69D67" d="M1261,475.4h-229.8c-3.4,0-6.1-2.7-6.1-6.1v0c0-3.4,2.7-6.1,6.1-6.1H1261c3.4,0,6.1,2.7,6.1,6.1v0
					C1267.1,472.7,1264.4,475.4,1261,475.4z"/>
				<g>
					<rect x="1114.5" y="723.6" fill="#E08D41" width="65.5" height="33.8"/>
					<rect x="1147.2" y="723.6" fill="#CF823C" width="32.8" height="33.8"/>
					<rect x="1094.6" y="752.7" fill="#EAEAEA" width="105.2" height="22.6"/>
					<rect x="1094.6" y="752.7" fill="#D6D6D6" width="105.2" height="11.3"/>
					<path fill="#FF6E4A" d="M1159.8,704.2c0,12.7-5.6,16.8-12.6,16.8s-12.6-4.1-12.6-16.8s12.6-35.5,12.6-35.5
						S1159.8,691.5,1159.8,704.2z"/>
					<path fill="#FFAE4A" d="M1155.4,710.1c0,8.3-3.6,10.9-8.1,10.9s-8.1-2.6-8.1-10.9c0-8.3,8.1-23,8.1-23
						S1155.4,701.9,1155.4,710.1z"/>
				</g>
				<path fill="#B88758" d="M1274.2,792.6h-254c-5.5,0-10-4.5-10-10l0,0c0-5.5,4.5-10,10-10h254c5.5,0,10,4.5,10,10l0,0
					C1284.2,788.1,1279.8,792.6,1274.2,792.6z"/>
			</g>
			<g>
				<circle fill="#F57142" cx="800.2" cy="161.8" r="5.6"/>
				<circle fill="#F57142" cx="814.9" cy="172.2" r="3.7"/>
				<circle fill="#F57142" cx="795.5" cy="137.2" r="3.7"/>
				<circle fill="#F57142" cx="831.2" cy="139" r="5.6"/>
				<circle fill="#F57142" cx="773.1" cy="156.4" r="5.6"/>
				<circle fill="#F57142" cx="809.3" cy="101.3" r="5.6"/>
				<circle fill="#F57142" cx="843.8" cy="158.7" r="5.6"/>
				<circle fill="#F57142" cx="813.2" cy="141.4" r="5.6"/>
			</g>
		</g>
	</g>
</g>
<g id="TEXT">
</g>
</svg>
