<?xml version="1.0" encoding="utf-8"?>
<!-- Generator: Adobe Illustrator 25.2.3, SVG Export Plug-In . SVG Version: 6.00 Build 0)  -->
<svg version="1.1" id="Layer_1" xmlns="http://www.w3.org/2000/svg" xmlns:xlink="http://www.w3.org/1999/xlink" x="0px" y="0px"
	 viewBox="0 0 612 792" style="enable-background:new 0 0 612 792;" xml:space="preserve">
<style type="text/css">
	.st0{fill:#844C9E;stroke:#C2E5F9;stroke-width:4;stroke-miterlimit:10;}
	.st1{fill:none;stroke:#9351A0;stroke-width:10;stroke-miterlimit:10;}
</style>
<g>
	<g id="hgOWnV_1_">
		
			<image style="overflow:visible;" width="450" height="300" id="hgOWnV_2_" xlink:href="8623365A9934023F.jpg"  transform="matrix(1 0 0 1 51.2837 204.5936)">
		</image>
	</g>
	<path class="st0" d="M124.3,303.8h16v41.3h17.1v-41.3h16v101.5h-16v-45.7h-17.1v45.7h-16V303.8z M196,303.8h43.5v14.5H212v26.8
		h21.9v14.5H212v31.2h27.6v14.5H196V303.8z M259.5,303.8h16v87h26.2v14.5h-42.2V303.8z M320.3,303.8h16v87h26.2v14.5h-42.2V303.8z
		 M379.9,381.3v-53.4c0-16.2,8.6-25.5,24.2-25.5s24.2,9.3,24.2,25.5v53.4c0,16.2-8.6,25.5-24.2,25.5S379.9,397.5,379.9,381.3z
		 M412.4,382.3v-55.4c0-7.3-3.2-10-8.3-10s-8.3,2.8-8.3,10v55.4c0,7.2,3.2,10,8.3,10S412.4,389.5,412.4,382.3z M450.4,266.5H102.2
		v176.1h348.2V266.5z"/>
	<rect x="48.1" y="203.8" class="st1" width="456.3" height="301.6"/>
</g>
</svg>
